<?xml version="1.0" encoding="iso-8859-1"?>
<!-- Uploaded to: SVG Repo, www.svgrepo.com, Generator: SVG Repo Mixer Tools -->
<!DOCTYPE svg PUBLIC "-//W3C//DTD SVG 1.1//EN" "http://www.w3.org/Graphics/SVG/1.1/DTD/svg11.dtd">
<svg fill="#ffff" version="1.1" id="Capa_1" xmlns="http://www.w3.org/2000/svg" xmlns:xlink="http://www.w3.org/1999/xlink" 
	 width="800px" height="800px" viewBox="0 0 423.24 423.24"
	 xml:space="preserve">
<g>
	<g>
		<rect x="149.684" y="190.261" width="123.867" height="27.77"/>
		<path d="M149.684,369.663h123.884V268.588H149.684V369.663z M215.363,300.619h51.059v34.873h-51.059V300.619z M156.985,300.619
			h51.067v34.873h-51.067V300.619z"/>
		<path d="M423.24,139.008h-96.282V72.797c0-10.6-8.624-19.22-19.22-19.22h-192.22c-10.604,0-19.224,8.62-19.224,19.22v66.211H0
			v38.443h423.24V139.008z M305.599,139.008H117.646V74.931h187.953V139.008z"/>
		<rect x="149.684" y="230.838" width="123.867" height="24.935"/>
		<path d="M0,369.663h136.874V190.269H0V369.663z M64.878,232.148c26.399,0,47.807,21.416,47.807,47.816
			c0,26.405-21.408,47.809-47.807,47.809c-26.411,0-47.813-21.411-47.813-47.809C17.065,253.564,38.467,232.148,64.878,232.148z"/>
		<path d="M423.24,369.663V190.269H286.371v179.395H423.24z M358.372,232.148c26.405,0,47.809,21.416,47.809,47.816
			c0,26.405-21.403,47.809-47.809,47.809c-26.4,0-47.805-21.411-47.805-47.809C310.567,253.564,331.972,232.148,358.372,232.148z"/>
	</g>
</g>
</svg>