<?xml version="1.0" encoding="iso-8859-1"?>
<!-- Uploaded to: SVG Repo, www.svgrepo.com, Generator: SVG Repo Mixer Tools -->
<svg fill="#ffff" height="800px" width="800px" version="1.1" id="Layer_1" xmlns="http://www.w3.org/2000/svg" xmlns:xlink="http://www.w3.org/1999/xlink" 
	 viewBox="0 0 511.997 511.997" xml:space="preserve">
<g>
	<g>
		<path d="M378.699,328.417c-0.288-4.788-3.034-9.086-7.259-11.357c-12.137-6.522-20.914-16.934-24.712-29.32l-1.929-6.288
			l9.179-4.885c4.32-2.3,7.103-6.713,7.318-11.601c0.212-4.829,1.651-47.898-12.908-72.527
			c-12.897-21.817-32.044-36.846-55.79-43.979V90.285c7.012-0.672,12.495-6.575,12.495-13.762V13.829
			C305.093,6.191,298.901,0,291.263,0h-70.53c-7.638,0-13.829,6.191-13.829,13.829v62.693c0,7.638,6.191,13.829,13.829,13.829h1.431
			v57.306c-25.033,6.765-45.129,22.069-58.556,44.779c-14.561,24.63-13.121,67.697-12.908,72.527
			c0.214,4.89,2.997,9.302,7.318,11.601l9.179,4.885l-1.929,6.288c-3.799,12.386-12.575,22.796-24.712,29.32
			c-4.225,2.271-6.973,6.569-7.259,11.357c-0.151,2.538-3.268,62.581,35.788,98.96c18.975,17.675,45.089,28.92,73.085,31.774v39.02
			c0,7.638,6.191,13.829,13.829,13.829s13.829-6.191,13.829-13.829v-38.946c28.076-2.683,53.63-13.724,73.085-31.848
			C381.967,390.997,378.851,330.954,378.699,328.417z M234.562,27.659h42.871v35.034h-41.44h-1.431V27.659z M264.939,90.351v68.959
			v157.366h-15.117V158.83V90.351H264.939z M324.061,407.138c-35.622,33.181-100.505,33.181-136.126,0
			c-4.868-4.535-8.86-9.669-12.142-15.08h91.265c7.638,0,13.829-6.191,13.829-13.829s-6.191-13.829-13.829-13.829H164.68
			c-2.709-11.037-3.536-21.048-3.757-27.374c14.846-10.042,25.642-24.407,30.786-41.173l5.273-17.193
			c1.942-6.332-0.878-13.152-6.724-16.263l-12.021-6.397c0.165-14.017,1.968-37.288,9.179-49.484
			c8.418-14.239,20.066-24.229,34.746-29.835v153.827c0,7.638,6.191,13.829,13.829,13.829h42.776
			c7.638,0,13.829-6.191,13.829-13.829v-152.69c13.391,5.776,24.107,15.382,31.98,28.699c7.211,12.198,9.014,35.472,9.179,49.484
			l-12.021,6.397c-5.846,3.112-8.665,9.932-6.724,16.263l5.273,17.193c5.146,16.775,15.954,31.148,30.812,41.191
			C350.633,351.636,346.982,385.786,324.061,407.138z"/>
	</g>
</g>
<g>
	<g>
		<path d="M322.101,375.526c-0.18-0.885-0.443-1.756-0.788-2.586c-0.346-0.83-0.774-1.646-1.272-2.393
			c-0.498-0.761-1.079-1.466-1.715-2.102c-0.636-0.636-1.341-1.217-2.102-1.715c-0.747-0.498-1.549-0.927-2.392-1.272
			c-0.83-0.346-1.701-0.609-2.586-0.788c-1.784-0.36-3.623-0.36-5.407,0c-0.871,0.18-1.742,0.443-2.586,0.788
			c-0.83,0.346-1.632,0.774-2.379,1.272c-0.761,0.498-1.466,1.079-2.102,1.715c-0.636,0.636-1.217,1.341-1.729,2.102
			c-0.498,0.747-0.927,1.563-1.272,2.393c-0.346,0.83-0.608,1.701-0.788,2.586s-0.263,1.798-0.263,2.697
			c0,0.913,0.083,1.812,0.263,2.711c0.18,0.885,0.443,1.742,0.788,2.586c0.346,0.83,0.774,1.632,1.272,2.393
			c0.512,0.747,1.092,1.452,1.729,2.102c0.636,0.636,1.341,1.203,2.102,1.715c0.747,0.498,1.549,0.927,2.379,1.272
			c0.844,0.346,1.715,0.609,2.586,0.788c0.899,0.18,1.812,0.263,2.711,0.263c0.899,0,1.812-0.083,2.697-0.263
			c0.885-0.18,1.756-0.443,2.586-0.788c0.844-0.346,1.646-0.774,2.392-1.272c0.761-0.512,1.466-1.079,2.102-1.715
			c0.636-0.65,1.217-1.355,1.715-2.102c0.498-0.761,0.927-1.563,1.272-2.393c0.346-0.844,0.609-1.701,0.788-2.586
			c0.18-0.899,0.277-1.798,0.277-2.711C322.378,377.324,322.281,376.411,322.101,375.526z"/>
	</g>
</g>
</svg>